<mxfile host="app.diagrams.net" modified="2023-09-07T15:31:59.899Z" agent="Mozilla/5.0 (Windows NT 10.0; Win64; x64) AppleWebKit/537.36 (KHTML, like Gecko) Chrome/116.0.0.0 Safari/537.36" version="21.7.2" etag="u0Zb-by9vYrBFIM1uNqH" type="github">
  <diagram name="Page-1" id="hZLy_tJpmAYavOWQ5EsK">
    <mxGraphModel>
      <root>
        <mxCell id="0" />
        <mxCell id="1" parent="0" />
      </root>
    </mxGraphModel>
  </diagram>
</mxfile>
